HIERARCHY
ROOT Hips
{
	OFFSET 0.000000 100.481300 0.000000
	CHANNELS 6 Xposition Yposition Zposition Xrotation Yrotation Zrotation
	JOINT Spine
	{
		OFFSET -0.279200 12.230698 -2.892100
		CHANNELS 3 Xrotation Yrotation Zrotation
		JOINT Spine1
		{
			OFFSET -0.325700 14.269203 -3.374200
			CHANNELS 3 Xrotation Yrotation Zrotation
			JOINT Spine2
			{
				OFFSET -0.372300 16.307602 -0.352600
				CHANNELS 3 Xrotation Yrotation Zrotation
				JOINT Neck
				{
					OFFSET -0.418800 17.814194 8.416900
					CHANNELS 3 Xrotation Yrotation Zrotation
					JOINT Head
					{
						OFFSET 0.000000 7.031097 3.806800
						CHANNELS 3 Xrotation Yrotation Zrotation
						JOINT HeadTop_End
						{
							OFFSET 0.000000 24.646606 12.978600
							CHANNELS 3 Xrotation Yrotation Zrotation
							End Site
							{
								OFFSET 0.000000 27.854965 0.000000
							}
						}
					}
				}
				JOINT LeftShoulder
				{
					OFFSET 16.952999 14.495407 -7.737500
					CHANNELS 3 Xrotation Yrotation Zrotation
					JOINT LeftArm
					{
						OFFSET 9.308998 -2.777710 0.208600
						CHANNELS 3 Xrotation Yrotation Zrotation
						JOINT LeftForeArm
						{
							OFFSET 29.972298 0.000000 0.000000
							CHANNELS 3 Xrotation Yrotation Zrotation
							JOINT LeftHand
							{
								OFFSET 26.026505 0.000000 0.000000
								CHANNELS 3 Xrotation Yrotation Zrotation
								JOINT LeftHandThumb1
								{
									OFFSET 12.240501 -7.147949 9.207150
									CHANNELS 3 Xrotation Yrotation Zrotation
									JOINT LeftHandThumb2
									{
										OFFSET 4.138618 -2.389435 2.389433
										CHANNELS 3 Xrotation Yrotation Zrotation
										JOINT LeftHandThumb3
										{
											OFFSET 2.726913 -1.574387 1.574386
											CHANNELS 3 Xrotation Yrotation Zrotation
											JOINT LeftHandThumb4
											{
												OFFSET 3.941010 -2.275345 2.275342
												CHANNELS 3 Xrotation Yrotation Zrotation
												End Site
												{
													OFFSET -0.005798 5.087799 0.009903
												}
											}
										}
									}
								}
								JOINT LeftHandIndex1
								{
									OFFSET 24.424698 -1.985611 5.953459
									CHANNELS 3 Xrotation Yrotation Zrotation
									JOINT LeftHandIndex2
									{
										OFFSET 6.426697 0.000000 0.000000
										CHANNELS 3 Xrotation Yrotation Zrotation
										JOINT LeftHandIndex3
										{
											OFFSET 5.337898 0.000000 0.000000
											CHANNELS 3 Xrotation Yrotation Zrotation
											JOINT LeftHandIndex4
											{
												OFFSET 4.409401 0.000000 0.000000
												CHANNELS 3 Xrotation Yrotation Zrotation
												End Site
												{
													OFFSET 0.000000 4.409363 0.014373
												}
											}
										}
									}
								}
								JOINT LeftHandMiddle1
								{
									OFFSET 23.810104 0.000000 0.000000
									CHANNELS 3 Xrotation Yrotation Zrotation
									JOINT LeftHandMiddle2
									{
										OFFSET 7.176498 0.000000 0.000000
										CHANNELS 3 Xrotation Yrotation Zrotation
										JOINT LeftHandMiddle3
										{
											OFFSET 6.774902 0.000000 0.000000
											CHANNELS 3 Xrotation Yrotation Zrotation
											JOINT LeftHandMiddle4
											{
												OFFSET 5.403328 0.000000 0.000000
												CHANNELS 3 Xrotation Yrotation Zrotation
												End Site
												{
													OFFSET -0.027702 5.403244 0.017414
												}
											}
										}
									}
								}
								JOINT LeftHandRing1
								{
									OFFSET 22.908401 -0.839279 -6.020567
									CHANNELS 3 Xrotation Yrotation Zrotation
									JOINT LeftHandRing2
									{
										OFFSET 6.337502 0.000000 0.000000
										CHANNELS 3 Xrotation Yrotation Zrotation
										JOINT LeftHandRing3
										{
											OFFSET 5.779297 0.000000 0.000000
											CHANNELS 3 Xrotation Yrotation Zrotation
											JOINT LeftHandRing4
											{
												OFFSET 4.965698 0.000000 0.000000
												CHANNELS 3 Xrotation Yrotation Zrotation
												End Site
												{
													OFFSET 0.000000 4.965668 0.016186
												}
											}
										}
									}
								}
								JOINT LeftHandPinky1
								{
									OFFSET 20.037003 -1.530319 -10.950146
									CHANNELS 3 Xrotation Yrotation Zrotation
									JOINT LeftHandPinky2
									{
										OFFSET 5.254700 0.000000 0.000000
										CHANNELS 3 Xrotation Yrotation Zrotation
										JOINT LeftHandPinky3
										{
											OFFSET 4.810204 0.000000 0.000000
											CHANNELS 3 Xrotation Yrotation Zrotation
											JOINT LeftHandPinky4
											{
												OFFSET 3.647202 0.000000 0.000000
												CHANNELS 3 Xrotation Yrotation Zrotation
												End Site
												{
													OFFSET 0.000000 3.647186 0.011889
												}
											}
										}
									}
								}
							}
						}
					}
				}
				JOINT RightShoulder
				{
					OFFSET -15.141001 14.495407 -7.737500
					CHANNELS 3 Xrotation Yrotation Zrotation
					JOINT RightArm
					{
						OFFSET -9.308998 -2.777710 0.208500
						CHANNELS 3 Xrotation Yrotation Zrotation
						JOINT RightForeArm
						{
							OFFSET -29.972300 0.000000 0.000000
							CHANNELS 3 Xrotation Yrotation Zrotation
							JOINT RightHand
							{
								OFFSET -26.026505 0.000000 0.000000
								CHANNELS 3 Xrotation Yrotation Zrotation
								JOINT RightHandThumb1
								{
									OFFSET -12.240601 -7.148026 9.207092
									CHANNELS 3 Xrotation Yrotation Zrotation
									JOINT RightHandThumb2
									{
										OFFSET -4.138618 -2.389435 2.389433
										CHANNELS 3 Xrotation Yrotation Zrotation
										JOINT RightHandThumb3
										{
											OFFSET -2.726974 -1.574417 1.574421
											CHANNELS 3 Xrotation Yrotation Zrotation
											JOINT RightHandThumb4
											{
												OFFSET -3.941010 -2.275345 2.275343
												CHANNELS 3 Xrotation Yrotation Zrotation
												End Site
												{
													OFFSET 0.005814 5.087799 0.009927
												}
											}
										}
									}
								}
								JOINT RightHandIndex1
								{
									OFFSET -24.424698 -1.985657 5.953444
									CHANNELS 3 Xrotation Yrotation Zrotation
									JOINT RightHandIndex2
									{
										OFFSET -6.426697 0.000000 0.000000
										CHANNELS 3 Xrotation Yrotation Zrotation
										JOINT RightHandIndex3
										{
											OFFSET -5.337898 0.000000 0.000000
											CHANNELS 3 Xrotation Yrotation Zrotation
											JOINT RightHandIndex4
											{
												OFFSET -4.409401 0.000000 0.000000
												CHANNELS 3 Xrotation Yrotation Zrotation
												End Site
												{
													OFFSET 0.000000 4.409363 0.014408
												}
											}
										}
									}
								}
								JOINT RightHandMiddle1
								{
									OFFSET -23.810097 0.000000 0.000000
									CHANNELS 3 Xrotation Yrotation Zrotation
									JOINT RightHandMiddle2
									{
										OFFSET -7.176498 0.000000 0.000000
										CHANNELS 3 Xrotation Yrotation Zrotation
										JOINT RightHandMiddle3
										{
											OFFSET -6.774902 0.000000 0.000000
											CHANNELS 3 Xrotation Yrotation Zrotation
											JOINT RightHandMiddle4
											{
												OFFSET -5.403328 0.000000 0.000000
												CHANNELS 3 Xrotation Yrotation Zrotation
												End Site
												{
													OFFSET 0.027702 5.403244 0.017457
												}
											}
										}
									}
								}
								JOINT RightHandRing1
								{
									OFFSET -22.908302 -0.839325 -6.020576
									CHANNELS 3 Xrotation Yrotation Zrotation
									JOINT RightHandRing2
									{
										OFFSET -6.337502 0.000000 0.000000
										CHANNELS 3 Xrotation Yrotation Zrotation
										JOINT RightHandRing3
										{
											OFFSET -5.779297 0.000000 0.000000
											CHANNELS 3 Xrotation Yrotation Zrotation
											JOINT RightHandRing4
											{
												OFFSET -4.965698 0.000000 0.000000
												CHANNELS 3 Xrotation Yrotation Zrotation
												End Site
												{
													OFFSET 0.000000 4.965668 0.016226
												}
											}
										}
									}
								}
								JOINT RightHandPinky1
								{
									OFFSET -20.037003 -1.530334 -10.950259
									CHANNELS 3 Xrotation Yrotation Zrotation
									JOINT RightHandPinky2
									{
										OFFSET -5.254700 0.000000 0.000000
										CHANNELS 3 Xrotation Yrotation Zrotation
										JOINT RightHandPinky3
										{
											OFFSET -4.810204 0.000000 0.000000
											CHANNELS 3 Xrotation Yrotation Zrotation
											JOINT RightHandPinky4
											{
												OFFSET -3.647202 0.000000 0.000000
												CHANNELS 3 Xrotation Yrotation Zrotation
												End Site
												{
													OFFSET 0.000000 3.647186 0.011917
												}
											}
										}
									}
								}
							}
						}
					}
				}
			}
		}
	}
	JOINT LeftUpLeg
	{
		OFFSET 15.427100 -6.655098 0.678600
		CHANNELS 3 Xrotation Yrotation Zrotation
		JOINT LeftLeg
		{
			OFFSET 4.081073 -39.591068 13.024000
			CHANNELS 3 Xrotation Yrotation Zrotation
			JOINT LeftFoot
			{
				OFFSET -4.081074 -37.707932 -15.979700
				CHANNELS 3 Xrotation Yrotation Zrotation
				JOINT LeftToeBase
				{
					OFFSET 5.346399 -15.068900 20.645000
					CHANNELS 3 Xrotation Yrotation Zrotation
					JOINT LeftToe_End
					{
						OFFSET 2.754700 0.931300 11.300900
						CHANNELS 3 Xrotation Yrotation Zrotation
						End Site
						{
							OFFSET 0.000000 11.669021 0.000000
						}
					}
				}
			}
		}
	}
	JOINT RightUpLeg
	{
		OFFSET -15.569500 -6.655098 0.678600
		CHANNELS 3 Xrotation Yrotation Zrotation
		JOINT RightLeg
		{
			OFFSET -4.081825 -39.591045 13.023800
			CHANNELS 3 Xrotation Yrotation Zrotation
			JOINT RightFoot
			{
				OFFSET 4.081824 -37.707954 -15.979600
				CHANNELS 3 Xrotation Yrotation Zrotation
				JOINT RightToeBase
				{
					OFFSET -5.346400 -15.068900 20.645000
					CHANNELS 3 Xrotation Yrotation Zrotation
					JOINT RightToe_End
					{
						OFFSET -2.754700 0.931300 11.300900
						CHANNELS 3 Xrotation Yrotation Zrotation
						End Site
						{
							OFFSET 0.000000 11.669021 0.000000
						}
					}
				}
			}
		}
	}
}
MOTION
Frames: 6
Frame Time: 0.033333
-0.747495 42.844398 12.449806 -22.807530 0.440071 -2.538295 6.017337 2.925697 0.975399 12.066317 5.244123 0.869359 12.066321 5.244119 0.869361 3.934204 -3.476562 -2.060922 -5.883520 -18.538569 5.028697 -0.000001 0.000001 -0.000000 1.164060 -2.222569 -19.893358 3.687267 -34.077965 -37.712623 -0.210452 -31.555170 0.016214 12.538864 -7.666787 32.370251 -4.572101 -13.590581 14.995863 -11.458801 29.458985 -26.351657 0.000001 0.000001 -0.000012 0.000002 0.000003 0.000001 -3.567103 3.842324 -60.590649 -10.164960 -4.550861 -53.684474 -0.000003 0.000002 -0.000000 0.000003 -0.000002 -0.000001 -12.373934 15.012983 -61.237591 -1.436781 -2.870022 -46.000436 -0.000001 0.000003 0.000003 0.000002 0.000001 0.000003 -11.901701 28.970374 -62.563085 -1.688367 -4.215966 -49.240770 0.000007 0.000002 -0.000001 -0.000001 -0.000001 -0.000001 -15.252168 30.084811 -69.930516 -0.435367 -5.276134 -20.890765 -0.000001 0.000002 0.000004 -0.000004 -0.000001 0.000001 0.086906 15.224901 22.203495 -33.603083 23.430832 54.523061 -14.602403 26.665091 6.619379 -3.141118 14.236451 2.760048 23.380805 13.538062 5.592169 2.321133 -6.714511 -2.170910 -0.000002 0.000001 -0.000011 -0.000001 0.000001 -0.000002 2.187527 5.608953 37.424154 1.433804 -2.439480 69.793011 0.000001 -0.000003 -0.000003 0.000000 0.000000 -0.000004 -2.320004 10.552227 44.468971 -2.591641 2.915536 74.285247 0.000011 -0.000005 0.000006 -0.000000 0.000000 -0.000000 -3.428707 13.092790 55.668313 -2.589556 5.513052 54.530308 0.000000 0.000000 -0.000003 0.000000 -0.000000 0.000000 -3.360200 14.852900 54.810598 -1.148042 7.534056 27.882106 0.000000 -0.000000 -0.000001 -0.000000 0.000001 -0.000001 -73.180901 -3.296716 9.136180 105.112677 -1.287592 -2.740827 -1.771681 -2.957524 3.435190 -18.596466 -0.170607 0.613103 -0.000000 0.000000 0.000000 -67.120815 2.783942 -18.093245 98.342751 5.880748 4.780211 -7.176172 3.305849 0.637037 -1.545499 -0.174635 0.442215 0.000000 0.000000 -0.000000 
-0.745011 42.852432 12.447460 -22.827694 0.451203 -2.538992 6.008533 2.924389 0.971640 12.048875 5.241251 0.862200 12.048863 5.241249 0.862200 3.964876 -3.643033 -2.397173 -5.076860 -19.735184 6.071607 -0.000000 -0.000001 0.000000 1.157484 -2.251025 -19.986119 3.737633 -33.963321 -37.612602 -0.186282 -31.665129 0.018600 12.590873 -7.605593 32.320127 -4.593280 -13.623349 14.970803 -11.458808 29.458988 -26.351650 -0.000002 -0.000002 -0.000010 -0.000004 0.000003 -0.000000 -3.567103 3.842326 -60.590649 -10.164960 -4.550860 -53.684474 -0.000000 0.000003 -0.000000 -0.000003 -0.000003 -0.000002 -12.373935 15.012986 -61.237591 -1.436783 -2.870022 -46.000443 -0.000001 0.000001 0.000006 -0.000000 0.000002 0.000004 -11.901699 28.970374 -62.563085 -1.688367 -4.215963 -49.240770 0.000002 0.000002 -0.000002 0.000001 -0.000000 -0.000000 -15.252168 30.084808 -69.930516 -0.435367 -5.276134 -20.890760 0.000002 -0.000001 -0.000002 0.000002 0.000001 -0.000002 0.143573 14.995643 22.064255 -33.528582 23.532899 54.709020 -14.632062 26.892128 6.685213 -3.403628 13.588644 3.426651 23.129408 13.758272 5.569804 2.069107 -6.373867 -2.280891 -0.000002 0.000000 -0.000008 -0.000003 0.000001 -0.000000 2.283925 5.467143 35.223559 1.638401 -2.519142 67.614898 -0.000002 -0.000001 -0.000003 -0.000001 -0.000000 0.000000 -2.199995 10.427288 42.255891 -2.403857 2.858867 72.086568 0.000011 -0.000005 0.000005 -0.000000 -0.000000 0.000000 -3.258425 12.974814 53.495305 -2.441032 5.403437 52.379782 -0.000001 -0.000000 -0.000002 -0.000001 0.000000 -0.000002 -3.166219 14.715238 52.629483 -1.093810 7.429034 26.341661 0.000000 -0.000000 0.000000 0.000000 -0.000000 -0.000001 -73.149400 -3.291603 9.133262 105.100465 -1.280062 -2.737939 -1.772672 -2.970083 3.440246 -18.633142 -0.171002 0.614794 0.000001 -0.000000 -0.000000 -67.078817 2.763429 -18.083937 98.334568 5.867724 4.774216 -7.192462 3.310605 0.624016 -1.548732 -0.174661 0.442044 -0.000000 -0.000000 -0.000000 
-0.744629 42.870285 12.438236 -22.860956 0.468045 -2.557117 5.995934 2.923156 0.959269 12.024185 5.238016 0.837902 12.024185 5.238018 0.837902 4.186465 -3.977512 -2.743713 -3.875877 -21.838878 7.609515 0.000000 0.000001 -0.000000 1.132812 -2.313290 -20.206230 3.862418 -33.664609 -37.357689 -0.126826 -32.002664 0.028890 12.699070 -7.439222 32.232411 -4.614942 -13.608554 14.888293 -11.458807 29.458985 -26.351655 -0.000002 0.000002 -0.000009 0.000001 0.000003 -0.000001 -3.567103 3.842323 -60.590649 -10.164951 -4.550861 -53.684477 -0.000001 0.000004 -0.000000 -0.000001 0.000001 -0.000002 -12.373936 15.012979 -61.237591 -1.436784 -2.870017 -46.000436 -0.000002 0.000002 0.000004 0.000003 0.000000 0.000001 -11.901700 28.970370 -62.563085 -1.688367 -4.215965 -49.240770 0.000006 0.000000 -0.000001 0.000002 0.000001 0.000001 -15.252168 30.084804 -69.930516 -0.435368 -5.276133 -20.890764 0.000000 -0.000001 -0.000002 -0.000003 -0.000001 -0.000003 0.269418 14.478109 21.740135 -33.248418 23.872621 54.998203 -14.720221 27.588773 6.886455 -3.795696 11.979874 5.007388 22.477779 14.324604 5.519632 1.419020 -5.495572 -2.554592 0.000001 0.000000 -0.000006 -0.000002 0.000001 -0.000002 2.520898 5.095158 29.552917 2.150462 -2.759896 62.000769 -0.000001 -0.000003 0.000002 -0.000001 0.000001 -0.000001 -1.914298 10.085122 36.556398 -1.931188 2.679987 66.420291 0.000011 -0.000005 0.000003 0.000000 0.000000 0.000002 -2.842137 12.642551 47.900369 -2.078219 5.096068 46.839402 0.000000 0.000000 -0.000001 -0.000000 0.000000 -0.000001 -2.693004 14.328485 47.015843 -0.968122 7.153567 22.372814 -0.000000 -0.000001 -0.000000 0.000000 0.000000 -0.000000 -73.094540 -3.306776 9.139024 105.078000 -1.276020 -2.736925 -1.775325 -2.980676 3.444572 -18.670201 -0.171402 0.616506 -0.000001 0.000000 -0.000000 -66.999641 2.733182 -18.080026 98.294372 5.858074 4.770380 -7.198803 3.312685 0.613989 -1.566848 -0.174795 0.441097 0.000000 -0.000000 -0.000000 
-0.741948 42.894028 12.422459 -22.922176 0.476135 -2.587120 5.987317 2.915027 0.937093 12.007896 5.220761 0.793917 12.007898 5.220761 0.793918 4.702937 -4.452112 -2.983464 -2.447779 -24.627473 9.615446 -0.000001 0.000001 -0.000000 1.100122 -2.374174 -20.530029 4.041502 -33.186793 -36.975823 -0.031986 -32.575167 0.052993 12.847692 -7.173617 32.128544 -4.610854 -13.569172 14.853843 -11.458810 29.458985 -26.351657 0.000001 -0.000002 -0.000012 0.000001 -0.000000 -0.000002 -3.567102 3.842324 -60.590656 -10.164957 -4.550864 -53.684474 -0.000000 0.000002 -0.000003 0.000000 -0.000001 -0.000003 -12.373935 15.012981 -61.237584 -1.436781 -2.870023 -46.000436 -0.000003 0.000002 0.000000 0.000001 0.000001 0.000002 -11.901700 28.970370 -62.563085 -1.688368 -4.215966 -49.240767 0.000010 0.000002 -0.000001 0.000004 -0.000001 -0.000001 -15.252169 30.084808 -69.930516 -0.435367 -5.276132 -20.890764 -0.000002 0.000001 0.000001 -0.000000 0.000001 -0.000001 0.473551 13.626941 21.214726 -32.559017 24.596563 55.165512 -14.927349 29.187348 7.353879 -3.786541 8.942871 8.133555 21.575200 15.098289 5.468665 0.525935 -4.290432 -2.907138 -0.000002 0.000002 -0.000007 -0.000001 0.000002 0.000003 2.783479 4.550641 21.781330 2.809872 -3.169107 54.300584 -0.000000 -0.000002 0.000001 -0.000000 0.000000 0.000000 -1.581759 9.573787 28.750329 -1.316296 2.360634 58.651121 0.000011 -0.000005 0.000004 -0.000000 0.000000 -0.000002 -2.329860 12.125656 40.241494 -1.632619 4.620660 39.246434 -0.000001 -0.000000 0.000000 0.000000 -0.000000 -0.000000 -2.113108 13.728914 39.336753 -0.828780 6.766975 16.932655 -0.000000 -0.000001 -0.000000 -0.000000 -0.000001 -0.000000 -73.000358 -3.331561 9.153771 105.051759 -1.272835 -2.735950 -1.782197 -2.987874 3.445781 -18.690801 -0.171622 0.617462 -0.000000 -0.000000 -0.000000 -66.887319 2.669640 -18.065075 98.241439 5.829581 4.757830 -7.202018 3.322366 0.586202 -1.577133 -0.174881 0.440561 0.000000 -0.000001 -0.000000 
-0.735159 42.918198 12.396915 -23.021462 0.459260 -2.621285 5.994273 2.887552 0.908851 12.022664 5.165611 0.738872 12.022655 5.165606 0.738874 5.536051 -4.986109 -3.036427 -0.971828 -27.638190 11.947353 0.000000 -0.000003 0.000000 1.055058 -2.427708 -20.944126 4.304301 -32.544038 -36.456364 0.085274 -33.370675 0.081683 12.941953 -6.823883 32.053654 -4.594033 -13.585332 14.923576 -11.458810 29.458985 -26.351657 0.000000 -0.000002 -0.000010 -0.000001 -0.000000 0.000000 -3.567103 3.842326 -60.590649 -10.164958 -4.550859 -53.684477 -0.000003 0.000001 -0.000001 -0.000002 -0.000002 -0.000002 -12.373936 15.012988 -61.237591 -1.436782 -2.870017 -46.000433 0.000004 0.000002 0.000003 -0.000002 -0.000001 0.000000 -11.901700 28.970374 -62.563078 -1.688365 -4.215965 -49.240767 0.000004 0.000003 -0.000001 -0.000001 0.000001 0.000002 -15.252168 30.084811 -69.930516 -0.435368 -5.276131 -20.890767 0.000004 -0.000002 -0.000001 -0.000001 -0.000003 -0.000003 0.737415 12.495703 20.488892 -31.486551 25.667837 54.987070 -15.315202 31.787666 8.145585 -2.510644 4.728849 13.552454 20.575120 15.940666 5.436761 -0.454705 -2.971009 -3.262669 -0.000002 0.000000 -0.000010 -0.000000 -0.000001 -0.000000 2.983233 3.919986 13.281221 3.462002 -3.713824 45.871038 -0.000001 0.000000 -0.000000 0.000001 0.000002 -0.000000 -1.302549 8.968707 20.220271 -0.699554 1.919385 50.150797 0.000011 -0.000005 0.000003 0.000001 -0.000000 -0.000001 -1.856222 11.488978 31.878784 -1.222005 4.037978 30.942799 0.000000 -0.000000 -0.000000 0.000000 0.000000 -0.000000 -1.580483 12.992912 30.959352 -0.717726 6.325331 10.982247 -0.000001 -0.000001 0.000002 -0.000000 -0.000000 0.000001 -72.856774 -3.352254 9.186284 105.021521 -1.270474 -2.735540 -1.796923 -2.992162 3.445073 -18.690469 -0.171621 0.617446 -0.000000 -0.000000 -0.000000 -66.753556 2.612281 -18.034174 98.182514 5.805500 4.745708 -7.184599 3.329222 0.573640 -1.561369 -0.174762 0.441383 0.000000 -0.000000 0.000000 
-0.724267 42.936714 12.363945 -23.147972 0.415898 -2.655839 6.020043 2.836090 0.881785 12.074506 5.064066 0.688310 12.074505 5.064067 0.688310 6.595010 -5.494392 -2.859077 0.444085 -30.402559 14.310528 0.000001 0.000001 -0.000001 0.995206 -2.497008 -21.431040 4.700167 -31.794698 -35.772303 0.211839 -34.338561 0.107406 12.869944 -6.417020 32.046923 -4.557092 -13.621568 15.077234 -11.458807 29.458992 -26.351660 -0.000001 0.000000 -0.000013 -0.000002 0.000002 -0.000001 -3.567099 3.842326 -60.590656 -10.164953 -4.550859 -53.684474 0.000004 0.000002 -0.000001 0.000003 0.000001 -0.000001 -12.373937 15.012988 -61.237584 -1.436781 -2.870024 -46.000436 0.000004 0.000003 0.000003 0.000000 0.000002 0.000002 -11.901700 28.970374 -62.563078 -1.688368 -4.215964 -49.240767 0.000005 -0.000000 -0.000003 -0.000005 -0.000000 0.000001 -15.252166 30.084808 -69.930516 -0.435367 -5.276135 -20.890762 0.000000 -0.000002 -0.000001 -0.000003 0.000001 0.000000 1.025418 11.187838 19.588323 -30.301823 26.907074 54.397218 -15.872670 35.006553 9.187693 0.440884 0.756401 21.490362 19.637374 16.715927 5.429845 -1.366356 -1.749791 -3.563476 0.000000 0.000000 -0.000007 -0.000000 -0.000002 -0.000003 3.082969 3.315577 5.416639 3.988915 -4.298390 38.065027 0.000000 -0.000001 -0.000000 0.000001 -0.000001 -0.000000 -1.128014 8.377564 12.335935 -0.192495 1.433587 42.285162 0.000011 -0.000005 0.000005 -0.000000 -0.000000 -0.000000 -1.506953 10.845003 24.156205 -0.920841 3.450785 23.261877 -0.000000 -0.000000 0.000000 -0.000001 -0.000000 0.000000 -1.191334 12.250692 23.230013 -0.656531 5.908079 5.476791 0.000000 -0.000001 -0.000000 0.000000 0.000000 -0.000000 -72.685207 -3.359318 9.234010 104.994638 -1.266274 -2.734533 -1.817703 -2.996038 3.447897 -18.687736 -0.171593 0.617320 0.000000 0.000000 -0.000000 -66.629213 2.569812 -17.980529 98.125899 5.793758 4.730110 -7.135791 3.332382 0.587240 -1.532059 -0.174531 0.442916 -0.000000 0.000000 -0.000000 
